# xmcd
#
# Track frame offsets:
#	150
#	17361
#	35090
#	49564
#	69032
#	89181
#	107570
#	129133
#	148668
#	166250
#	186203
#	196169
#	211215
#	230801
#	245401
#	264707
#	284307
#	302953
#	320134
#	335513
#
# Disc length: 4663 seconds
#
# Revision: 1
# Processed by: cddbd v1.5.1PL0 Copyright (c) Steve Scherf et al.
# Submitted via: EasyCDDAExtractor 6.5.0.1
#
DISCID=24123514
DTITLE=LOS TOROS BAND - HISTORIA MUSICAL
DYEAR=2004
DGENRE=Ballad
TTITLE0=SI TU ESTUVIERAS
TTITLE1=MI NIÑA
TTITLE2=QUISIERA QUE EL MUNDO ACABARA
TTITLE3=NO PUEDO QUITARME LAS ESPINAS
TTITLE4=QUIZAS SI QUIZAS NO
TTITLE5=SI ME RECUERDAS
TTITLE6=COMO TE OLVIDO
TTITLE7=MENOS QUE NADA
TTITLE8=NO ME AMENACES
TTITLE9=POR SI NO TE VUELVO A VER
TTITLE10=QUERUBE
TTITLE11=MI CORAZON LLORO
TTITLE12=CUANDO CASI TE OLVIDABA
TTITLE13=SE ME OLVIDO TU NOMBRE
TTITLE14=DEJAME PARTICIPAR EN TU JUEGO
TTITLE15=MI MORENITA
TTITLE16=MI RECETA DE AMOR
TTITLE17=RONDANDO TU ESQUINA
TTITLE18=DOS COSAS
TTITLE19=SIN SANGRE EN LAS VENAS
EXTD=
EXTT0=
EXTT1=
EXTT2=
EXTT3=
EXTT4=
EXTT5=
EXTT6=
EXTT7=
EXTT8=
EXTT9=
EXTT10=
EXTT11=
EXTT12=
EXTT13=
EXTT14=
EXTT15=
EXTT16=
EXTT17=
EXTT18=
EXTT19=
PLAYORDER=
